<?xml version="1.0" standalone="no"?>
<!DOCTYPE svg PUBLIC "-//W3C//DTD SVG 20010904//EN"
 "http://www.w3.org/TR/2001/REC-SVG-20010904/DTD/svg10.dtd">
<svg version="1.0" xmlns="http://www.w3.org/2000/svg"
 width="239.000000pt" height="239.000000pt" viewBox="0 0 239.000000 239.000000"
 preserveAspectRatio="xMidYMid meet">
<metadata>

</metadata>
<g transform="translate(0.000000,239.000000) scale(0.100000,-0.100000)"
fill="#FFFFFF" stroke="none">
<path d="M400 2319 c-119 -23 -238 -118 -295 -233 -118 -242 17 -532 280 -601
105 -27 195 -16 195 25 0 23 -31 38 -68 33 -55 -7 -159 22 -219 62 -144 96
-198 283 -126 438 39 83 97 141 181 180 207 97 450 -35 493 -267 5 -32 7 -71
4 -86 -10 -47 2 -72 33 -68 23 3 28 10 36 46 6 28 5 69 -1 112 -39 248 -266
407 -513 359z"/>
<path d="M1810 2319 c-120 -23 -245 -123 -298 -237 -31 -69 -48 -176 -36 -234
8 -36 13 -43 36 -46 31 -4 43 21 33 68 -8 39 10 133 37 189 31 65 99 128 175
164 176 82 380 3 466 -180 72 -155 18 -342 -126 -438 -60 -40 -164 -69 -219
-62 -56 8 -85 -24 -52 -57 33 -34 190 -11 286 41 64 35 143 120 174 188 149
324 -126 672 -476 604z"/>
<path d="M484 1875 c-20 -31 -12 -55 39 -112 52 -58 153 -198 199 -274 57 -96
98 -219 98 -294 0 -121 -72 -274 -218 -465 -151 -199 -138 -178 -121 -208 11
-20 24 -28 49 -30 29 -2 45 6 100 50 98 79 275 195 365 238 169 80 231 80 400
0 90 -43 267 -159 365 -238 55 -44 71 -52 100 -50 25 2 38 10 49 30 17 30 30
9 -121 208 -146 191 -218 344 -218 465 0 121 72 274 218 465 151 199 138 178
121 208 -11 20 -24 28 -49 30 -29 2 -45 -6 -100 -50 -98 -79 -275 -195 -365
-238 -169 -80 -231 -80 -400 0 -89 43 -267 158 -365 238 -76 61 -118 69 -146
27z"/>
<path d="M381 904 c-212 -57 -348 -266 -313 -480 39 -235 258 -394 489 -356
185 31 324 171 355 356 19 117 -12 205 -57 159 -13 -12 -15 -26 -11 -57 14
-92 -29 -211 -101 -284 -175 -175 -460 -128 -569 94 -32 65 -37 84 -38 147 0
127 55 234 157 302 60 40 164 69 219 62 26 -4 43 0 53 10 54 53 -56 82 -184
47z"/>
<path d="M1826 904 c-33 -33 -4 -65 52 -57 55 7 159 -22 219 -62 102 -68 157
-175 157 -302 -1 -63 -6 -82 -38 -147 -86 -176 -286 -249 -459 -169 -76 36
-144 99 -175 164 -27 56 -45 150 -37 189 10 47 -2 72 -33 68 -23 -3 -28 -10
-36 -46 -12 -58 5 -165 36 -234 36 -77 117 -161 192 -198 264 -130 570 25 618
314 36 216 -102 424 -317 481 -78 20 -159 20 -179 -1z"/>
</g>
</svg>
